<?xml version="1.0" encoding="UTF-8"?>
<svg width="230px" height="179px" viewBox="0 0 230 179" version="1.1" xmlns="http://www.w3.org/2000/svg" xmlns:xlink="http://www.w3.org/1999/xlink">
    <title>Group 19</title>
    <defs>
        <polygon id="path-1" points="0 0 20.2543129 0 20.2543129 29.0554188 0 29.0554188"></polygon>
        <polygon id="path-3" points="0 179 230 179 230 0 0 0"></polygon>
    </defs>
    <g id="Symbols" stroke="none" stroke-width="1" fill="none" fill-rule="evenodd">
        <g id="Header---Large" transform="translate(-835.000000, -20.000000)">
            <g id="Group-19" transform="translate(835.000000, 20.000000)">
                <path d="M115,0 L72.4330756,30.9422609 L63.7299227,24.6157506 L37.5468471,43.6483808 L36.0336109,29.294644 L34.292088,46.0139924 L22.705235,54.4360006 L18.8429506,20.3100913 L12.7312612,74.3389973 L0,83.5928943 L10.796401,91.4408145 L5.64247472,137 L224.218471,137 L219.075699,91.5331611 L230,83.5928943 L217.117787,74.2297205 L211.018739,20.3093217 L207.156454,54.4360006 L195.570345,46.0139924 L193.828822,29.294644 L192.315586,43.6476113 L166.133254,24.6157506 L157.498513,30.8922399 L115,0 Z M75.0304878,32.8299789 L115,3.77697514 L154.900357,32.7807274 L136.851576,45.9000983 L132.705979,45.8931723 L132.697055,45.9000983 L93.0116002,45.9000983 L75.0304878,32.8299789 Z M158.662998,31.7387502 L166.133254,26.3087712 L192.149762,45.2213509 L191.086407,55.3071366 L158.662998,31.7387502 Z M37.712671,45.2213509 L63.7299227,26.3087712 L71.2678465,31.7880017 L38.785693,55.3994832 L37.712671,45.2213509 Z M178.177424,75.1755034 L138.541047,46.3649094 L156.064842,33.6272377 L190.716835,58.8155371 L185.058745,112.483522 L153.540303,135.393169 L76.458953,135.393169 L44.7925342,112.374245 L39.1552647,58.9086533 L73.8660024,33.6772588 L90.6818858,45.9000983 L90.4454194,45.9000983 L79.4266805,53.9088555 L79.4266805,49.8933184 L68.3187091,49.8933184 L68.3187091,61.9837944 L50.1740036,75.1724252 L92.4947948,75.1724252 L92.496282,75.1755034 L95.1152588,75.1755034 L95.1152588,92.037989 L50.1740036,92.037989 L90.446163,121.311855 L102.515616,121.311855 L102.515616,92.037989 L98.10232,92.037989 L98.10232,74.8245864 L133.64887,48.9860132 L136.958656,48.9906305 L172.981112,75.1755034 L178.177424,75.1755034 Z M18.8429506,34.1297571 L30.3033908,135.393169 L7.38845925,135.393169 L18.8429506,34.1297571 Z M211.018739,34.1305266 L222.47323,135.393169 L199.559042,135.393169 L211.018739,34.1305266 Z M193.82213,41.9091869 L200.892326,109.795467 L199.856484,118.943935 L184.524836,130.087858 L193.82213,41.9091869 Z M30.0059488,118.943165 L28.9701071,109.791619 L36.0403034,41.9091869 L45.3368531,130.087858 L30.0059488,118.943165 Z M196.985425,59.5943266 L195.760708,47.8463025 L206.979477,56.0005055 L205.843992,66.0339615 L196.985425,59.5943266 Z M22.882213,56.0005055 L34.1009816,47.8463025 L32.8665973,59.7028339 L24.0281083,66.1263081 L22.882213,56.0005055 Z M197.410767,63.6814324 L205.449137,69.5246623 L201.979477,100.182957 L201.267103,100.701637 L197.410767,63.6814324 Z M27.8703153,100.07445 L24.4229625,69.6170088 L32.439768,63.7899396 L28.6042534,100.607752 L27.8703153,100.07445 Z M217.584027,78.3445303 L224.803688,83.5928943 L218.680845,88.0432299 L217.584027,78.3445303 Z M5.19705532,83.5928943 L12.2657644,78.4545766 L11.1912552,87.9501137 L5.19705532,83.5928943 Z M46.7690363,131.129066 L45.2230815,116.464429 L71.2626413,135.393169 L52.6353361,135.393169 L46.7690363,131.129066 Z M184.627454,116.574475 L183.092653,131.129066 L177.226353,135.393169 L158.736615,135.393169 L184.627454,116.574475 Z M199.614813,121.083297 L197.995985,135.393169 L179.929358,135.393169 L199.614813,121.083297 Z M30.2483641,121.083297 L49.9323319,135.393169 L31.8671921,135.393169 L30.2483641,121.083297 Z" id="Fill-1" fill="#C78D6C"></path>
                <polygon id="Fill-2" fill="#C78D6C" points="110 120 112 120 112 90 110 90"></polygon>
                <polygon id="Fill-3" fill="#C78D6C" points="126 120 128 120 128 90 126 90"></polygon>
                <polygon id="Fill-4" fill="#C78D6C" points="137 120 139 120 139 90 137 90"></polygon>
                <polygon id="Fill-5" fill="#C78D6C" points="148 86 148 115 150 112.583048 150 86"></polygon>
                <polygon id="Fill-6" fill="#C78D6C" points="158 89 156 89 156 108 158 105.736873"></polygon>
                <polygon id="Fill-7" fill="#C78D6C" points="169 88 167 88 167 99 169 96.706708"></polygon>
                <path d="M16.9801019,149 L6,179 L6.63779051,179 L11.0371538,166.999849 L20.2913403,166.999849 L24.6914358,179 L29,179 L17.9386183,149 L16.9801019,149 Z M15.6642471,154.465587 L20.0526266,166.424246 L11.2758676,166.424246 L15.6642471,154.465587 Z" id="Fill-8" fill="#C78D6C"></path>
                <g id="Group-18">
                    <g id="Group-11" transform="translate(42.541270, 149.944581)">
                        <mask id="mask-2" fill="white">
                            <use xlink:href="#path-1"></use>
                        </mask>
                        <g id="Clip-10"></g>
                        <path d="M0,0 L0,29.0554937 L20.2543129,29.0554937 L20.2543129,20.1184535 L19.8081499,20.1184535 C19.1872397,22.7029287 18.2012195,24.7435404 16.8515764,26.2395395 C15.5011898,27.7362877 13.636972,28.4846618 11.2611541,28.4846618 L4.05041642,28.4846618 L4.05041642,0 L0,0 Z" id="Fill-9" fill="#C78D6C" mask="url(#mask-2)"></path>
                    </g>
                    <mask id="mask-4" fill="white">
                        <use xlink:href="#path-3"></use>
                    </mask>
                    <g id="Clip-13"></g>
                    <polygon id="Fill-12" fill="#C78D6C" mask="url(#mask-4)" points="78.5120464 179 82.5632064 179 82.5632064 149.944506 78.5120464 149.944506"></polygon>
                    <polygon id="Fill-14" fill="#C78D6C" mask="url(#mask-4)" points="102.208507 149.944581 102.208507 179.000075 106.259667 179.000075 106.259667 164.064056 106.583135 164.064056 119.219215 179.000075 124.619274 179.000075 109.419244 161.493065 120.243159 149.944581 119.436347 149.944581 106.664188 163.493224 106.259667 163.493224 106.259667 149.944581"></polygon>
                    <path d="M171.234384,157.412366 L171.679804,157.412366 C172.138608,155.753058 172.685158,154.453329 173.320196,153.514678 C173.954491,152.576026 174.6163,151.88983 175.305622,151.454589 C175.9942,151.019348 176.675342,150.754159 177.350535,150.658271 C178.025729,150.563881 178.633254,150.515937 179.173855,150.515937 L181.522903,150.515937 L181.522903,178.99985 L185.574063,178.99985 L185.574063,150.515937 L187.923111,150.515937 C188.462968,150.515937 189.070494,150.563881 189.746431,150.658271 C190.42088,150.754159 191.10351,151.019348 191.792088,151.454589 C192.480666,151.88983 193.141731,152.576026 193.77677,153.514678 C194.411065,154.453329 194.957615,155.753058 195.417162,157.412366 L195.863325,157.412366 L195.863325,149.944356 L171.234384,149.944356 L171.234384,157.412366 Z" id="Fill-15" fill="#C78D6C" mask="url(#mask-4)"></path>
                    <path d="M143.303316,166.512415 L147.758998,154.637314 L152.215422,166.512415 L143.303316,166.512415 Z M150.068635,149.209916 L149.095999,149.209916 L137.944899,179.0003 L138.592579,179.0003 L143.060158,167.083996 L152.457838,167.083996 L156.92616,179.0003 L161.301532,179.0003 L150.068635,149.209916 Z" id="Fill-16" fill="#C78D6C" mask="url(#mask-4)"></path>
                    <path d="M223.492564,164.447757 C222.781678,163.927865 222.053688,163.538321 221.305622,163.278375 C220.556811,163.01843 219.937388,162.810173 219.447353,162.654356 L214.765616,161.17259 C214.09414,160.965083 213.430101,160.723865 212.772011,160.451184 C212.11392,160.178504 211.520523,159.841398 210.99182,159.43837 C210.463117,159.035341 210.031083,158.541669 209.69646,157.956604 C209.359607,157.371539 209.19304,156.663617 209.19304,155.831341 C209.19304,154.792307 209.404967,153.934561 209.831053,153.258103 C210.256395,152.583143 210.791791,152.037032 211.43724,151.621269 C212.081945,151.205505 212.77796,150.913347 213.52677,150.744046 C214.274836,150.575493 214.958953,150.490093 215.577632,150.490093 C216.687091,150.490093 217.661214,150.691607 218.5,151.094635 C219.338043,151.497663 220.054134,152.03029 220.647531,152.693264 C221.240928,153.355489 221.725015,154.122591 222.099048,154.993072 C222.472338,155.864303 222.737805,156.766996 222.892475,157.7034 L223.356484,157.7034 L223.356484,149.944731 L215.320345,149.944731 C214.210886,149.944731 213.198096,150.152987 212.152588,150.568002 C211.107823,150.984514 210.211035,151.556095 209.463712,152.283494 C208.714902,153.011642 208.134146,153.87613 207.722189,154.876209 C207.308745,155.877787 207.102766,156.961768 207.102766,158.131899 C207.102766,159.9253 207.637418,161.354627 208.708209,162.420629 C209.779001,163.485883 211.359905,164.344378 213.449435,164.993868 L217.899911,166.358021 C218.441999,166.513839 219.016062,166.735579 219.6221,167.020995 C220.228138,167.30716 220.788816,167.677227 221.305622,168.131945 C221.821684,168.587412 222.247026,169.139516 222.582391,169.789005 C222.917757,170.439244 223.085812,171.219082 223.085812,172.128517 C223.085812,172.752537 222.981707,173.434239 222.775729,174.175122 C222.56975,174.916005 222.197948,175.596958 221.692296,176.241953 C220.554581,177.692256 217.926681,178.394933 215.457168,178.412912 C214.348453,178.412912 212.413593,178.2526 211.57555,177.850321 C210.736764,177.446543 210.021416,176.913917 209.428019,176.251692 C208.834622,175.588718 208.350535,174.822364 207.975758,173.951134 C207.603212,173.080653 207.337745,172.17721 207.183076,171.241555 L206.718322,171.241555 L206.718322,179.000225 L215.505503,179.000225 C215.507733,179.000225 215.507733,178.997977 215.509221,178.997977 C220.326294,178.972507 222.654521,176.976094 223.434563,176.202249 C224.285247,175.357988 224.936645,174.383378 225.388013,173.278421 C225.839381,172.174214 226.066181,171.010825 226.066181,169.789005 C226.066181,168.463057 225.814099,167.371585 225.311422,166.513839 C224.808001,165.656842 224.20122,164.967648 223.492564,164.447757" id="Fill-17" fill="#C78D6C" mask="url(#mask-4)"></path>
                </g>
            </g>
        </g>
    </g>
</svg>